HIERARCHY
ROOT Hips
{
   OFFSET 0.00000 0.00000 0.00000
   CHANNELS 6 Xposition Yposition Zposition Zrotation Xrotation Yrotation
   JOINT Spine
   {
      OFFSET 0.000000 13.079551 0.000000
      CHANNELS 3 Zrotation Xrotation Yrotation
      JOINT Spine1
      {
         OFFSET -0.000000 28.223142 0.140426
         CHANNELS 3 Zrotation Xrotation Yrotation
         JOINT HEad
         {
            OFFSET 0.000000 9.607577 0.012474
            CHANNELS 3 Zrotation Xrotation Yrotation
            End Site
            {
               OFFSET -0.319000 14.051621 2.765345
            }
         }
         JOINT LeftShoulder1
         {
            OFFSET 9.889000 -0.398475 -0.242000
            CHANNELS 3 Zrotation Xrotation Yrotation
            JOINT LeftArm
            {
               OFFSET 11.310971 -0.003718 0.354332
               CHANNELS 3 Zrotation Xrotation Yrotation
               JOINT LeftForeArm
               {
                  OFFSET 36.043591 0.109054 -1.566774
                  CHANNELS 3 Zrotation Xrotation Yrotation
                  JOINT LeftHand
                  {
                     OFFSET 30.320732 0.093896 1.124376
                     CHANNELS 3 Zrotation Xrotation Yrotation
                     End Site
                     {
                        OFFSET 18.418731 -0.660000 1.653201
                     }
                  }
               }
            }
         }
         JOINT RightShoulder
         {
            OFFSET -9.889000 -0.398475 -0.242000
            CHANNELS 3 Zrotation Xrotation Yrotation
            JOINT RightArm
            {
               OFFSET -11.310971 -0.003718 0.354332
               CHANNELS 3 Zrotation Xrotation Yrotation
               JOINT RightForeArm
               {
                  OFFSET -36.186809 0.109054 -1.566774
                  CHANNELS 3 Zrotation Xrotation Yrotation
                  JOINT RightHand
                  {
                     OFFSET -30.241313 0.093896 1.124376
                     CHANNELS 3 Zrotation Xrotation Yrotation
                     End Site
                     {
                        OFFSET -18.294322 -0.660000 1.653201
                     }
                  }
               }
            }
         }
      }
   }
   JOINT LeftUpLeg
   {
      OFFSET 9.840380 -9.533777 0.111815
      CHANNELS 3 Zrotation Xrotation Yrotation
      JOINT LeftLeg
      {
         OFFSET 0.000000 -48.864969 1.509970
         CHANNELS 3 Zrotation Xrotation Yrotation
         JOINT LeftFoot
         {
            OFFSET -0.278905 -46.301641 -1.606649
            CHANNELS 3 Zrotation Xrotation Yrotation
            JOINT LeftToes
            {
               OFFSET -0.044000 -4.856599 9.349010
               CHANNELS 3 Zrotation Xrotation Yrotation
               End Site
               {
                  OFFSET 0.088000 -0.052195 10.757769
               }
            }
         }
      }
   }
   JOINT RightUpLeg
   {
      OFFSET -9.840380 -9.533777 0.111815
      CHANNELS 3 Zrotation Xrotation Yrotation
      JOINT RightLeg
      {
         OFFSET 0.000000 -48.864969 1.509970
         CHANNELS 3 Zrotation Xrotation Yrotation
         JOINT RightFoot
         {
            OFFSET 0.278905 -46.301641 -1.606649
            CHANNELS 3 Zrotation Xrotation Yrotation
            JOINT RightToes
            {
               OFFSET 0.044000 -4.856599 9.349010
               CHANNELS 3 Zrotation Xrotation Yrotation
               End Site
               {
                  OFFSET -0.088000 -0.151195 10.757769
               }
            }
         }
      }
   }
}
MOTION
Frames: 16
Frame Time: 0.016670
-91.397189 95.685338 14.786993 31.919779 35.326824 117.423014 9.741235 59.098068 160.436171 7.011653 -3.233956 -164.477813 -37.854916 20.741942 11.081502 193.949765 -50.188971 186.217157 757.056528 -75.132081 769.625825 -5.738576 149.654239 -67.104744 -134.475073 -21.600410 -116.281225 -5.902099 74.806076 48.826564 157.293738 272.531296 238.772458 30.371877 352.683703 70.875732 17.851997 10.435599 31.913209 14.968776 14.571599 32.670055 5.003636 22.702567 5.791292 -7.600366 10.772562 -12.537686 -24.621978 -10.306794 -44.579849 -49.876254 47.888717 49.651695 6.433843 19.247386 55.889082 -40.346020 26.990705 -8.132875 27.602239 -37.757170 -67.750040
-91.464833 95.167941 17.483967 30.903683 34.450740 117.358496 9.864100 58.758792 164.952634 6.733392 -0.855588 -162.367680 -38.223866 22.584256 11.794461 207.203009 -45.032844 197.513293 775.641473 -71.406541 780.899954 -9.366074 153.804508 -67.346020 -135.452323 -19.490450 -117.768089 -3.862788 81.614251 46.530472 163.605557 279.964482 244.551754 36.852873 357.516007 69.556106 19.311921 15.390204 27.536999 16.340123 12.557298 33.197079 6.381659 23.058906 1.102083 -7.304833 11.242929 -12.014147 -11.304519 -2.648293 -48.607113 -50.092607 48.512143 53.846800 8.723965 15.373210 46.688612 -41.049065 23.494850 -6.531196 26.733062 -38.613750 -63.855302
-91.452149 94.736680 19.971846 30.756451 33.673017 117.582212 10.873423 58.104139 167.609413 5.961012 -0.127748 -160.540373 -37.828426 25.096750 12.600727 217.854812 -40.465586 205.399197 793.219593 -67.791875 791.107808 -12.377130 156.812305 -67.074322 -135.252854 -17.689461 -118.607287 -2.255454 86.662267 44.129388 169.780485 285.946798 250.043581 42.302049 360.302997 68.192930 20.439995 16.452823 25.941543 16.655741 11.818157 33.614243 6.842986 22.302606 -2.849299 -6.823780 11.696006 -11.512263 -18.535257 -6.865451 -43.093829 -50.375664 49.802464 57.366260 11.800200 11.756001 38.498266 -39.751185 20.308341 -4.943821 28.486479 -35.476665 -61.916184
-91.362017 94.426449 22.166936 31.881954 33.845486 119.073037 12.517564 58.057475 167.879575 5.157924 -1.083440 -159.506637 -37.019922 27.566872 13.610645 226.059235 -36.903884 210.742085 808.358953 -65.275442 800.541884 -15.392002 159.723605 -67.060621 -135.010546 -15.703687 -120.513169 -0.760853 90.115221 42.101931 175.256165 290.424834 254.830478 46.722708 361.326897 67.538632 21.264370 19.899109 23.517583 17.230009 11.865164 33.489217 7.637333 21.523314 -6.290080 -6.456901 12.560726 -11.423069 -18.399744 -6.520143 -41.279020 -50.849129 52.242659 61.685918 15.176629 9.773803 32.898153 -39.367687 16.001692 -2.675800 28.708583 -35.616305 -58.803878
-91.267804 94.300316 24.216559 32.692776 32.679931 118.915916 14.192786 58.005832 167.960362 5.106058 -2.478826 -157.917676 -35.909313 29.510662 14.844130 230.782994 -33.629625 214.548919 821.936003 -64.188021 809.436703 -17.997347 163.267708 -67.177513 -134.169217 -14.437799 -121.781030 -0.301790 91.744078 40.535072 179.430873 293.349549 258.773164 50.100524 361.428476 67.459080 21.809673 20.657125 22.514822 17.667000 12.427213 33.354238 8.707736 19.121849 -8.820177 -6.365470 12.808647 -11.163281 -19.783216 -8.068782 -37.854394 -50.689569 53.235283 63.866299 17.749575 6.144430 28.896768 -37.955382 12.799127 -0.560064 28.084013 -34.575869 -57.203579
-91.158246 94.338053 26.071639 33.505790 32.041620 118.210740 15.362475 57.957283 167.485022 6.131376 -4.809800 -155.951278 -34.696497 30.633853 16.331706 231.638708 -30.246574 217.370470 833.410339 -65.209537 817.594298 -20.231830 168.210060 -67.837159 -133.383144 -13.716363 -123.477840 -0.501489 91.793439 40.080076 182.469214 294.782003 261.735745 52.344319 360.867553 67.944912 22.091690 22.611517 20.920033 18.019738 13.569519 33.341493 9.078816 18.305689 -8.853822 -5.912229 12.811577 -10.915049 -19.001296 -10.140293 -37.367343 -49.545123 53.629208 64.812512 18.715876 4.463591 26.346539 -37.388705 10.780917 1.197779 27.709224 -34.193044 -56.448184
-91.032628 94.571055 27.699976 34.473689 32.198441 117.216319 16.447591 58.261076 166.091254 7.775622 -7.777217 -154.042964 -33.022687 32.198154 18.511865 228.407892 -26.386144 219.512813 842.431871 -68.491484 825.827135 -21.751694 175.057940 -69.057256 -132.453159 -14.362353 -124.324401 -1.236266 89.695444 41.093611 184.680884 295.050894 263.872201 53.150671 359.680548 68.527042 22.007648 22.824773 20.212405 18.259744 15.125703 33.906961 8.938126 18.309710 -6.593415 -5.476463 12.001498 -10.296502 -19.934406 -9.037489 -22.791269 -47.799515 53.830606 64.692786 18.393822 4.995673 25.067742 -34.729094 8.970683 2.142665 25.703178 -33.319527 -57.110012
-90.919369 94.819420 29.110922 34.887005 31.388435 116.667759 17.452180 56.641058 164.679126 10.139130 -10.774131 -151.680128 -31.637098 31.734145 21.014940 220.933984 -22.261649 221.820283 848.264525 -74.184419 833.659176 -22.470971 184.455638 -70.702054 -132.054836 -16.639280 -124.391924 -2.477656 86.153978 44.137236 187.949239 294.520899 265.245834 52.637276 357.683374 66.437462 21.619943 23.620075 18.213707 18.611512 16.490474 33.913112 8.528084 18.085928 -3.214021 -5.468732 13.283729 -10.494371 -17.336719 -9.112531 -32.692120 -45.402149 53.030685 63.513997 18.298818 3.867118 24.717425 -32.631864 7.835912 3.121227 24.831277 -30.818869 -56.733484
-90.791205 95.192460 30.255029 35.458415 33.252967 116.356903 19.249512 50.867233 164.028919 13.405802 -13.398879 -149.378532 -30.709121 27.000580 24.081724 208.665325 -21.399881 226.840349 848.329275 -82.680505 842.251827 -19.838814 200.216914 -69.589492 -132.881139 -21.470751 -121.171271 -5.888400 79.578111 48.095382 195.550133 292.372422 265.856535 51.210501 355.722836 54.870448 20.846849 23.471680 17.083024 18.442264 18.128239 34.450573 6.228543 20.201193 1.160517 -5.718453 14.350125 -10.967782 -16.266007 -8.470256 -32.857718 -43.794989 53.295997 61.930520 17.388311 8.604611 24.992632 -31.469069 6.751047 3.429785 24.846305 -32.203546 -57.102851
-90.664567 95.672482 31.172795 35.878550 33.057900 115.012449 19.375230 49.103931 162.564158 15.819278 -15.387749 -147.227214 -29.809439 25.341469 26.793512 197.396770 -16.010348 229.689836 848.450852 -90.558043 846.182956 -20.007436 211.159246 -72.476756 -132.582018 -23.691092 -120.075340 -9.368871 73.451629 51.703463 199.383317 290.187362 265.376536 49.314092 353.413659 49.922833 20.044638 23.990295 12.588123 18.600208 18.680258 34.894504 5.889215 20.975350 4.765228 -6.903160 15.212508 -11.018401 -14.736207 -7.657282 -37.862816 -41.038744 52.692833 60.165087 15.483030 11.952381 24.522594 -29.378805 5.392195 3.042136 24.240978 -34.280832 -56.345154
-90.538329 96.205719 31.919503 36.920690 32.356232 114.361402 19.522079 47.867584 160.314621 18.178788 -17.360295 -145.932743 -28.850845 24.638441 29.280987 187.346133 -8.829149 231.820800 801.610399 -98.449684 802.326640 -20.855636 219.856877 -75.731205 -131.715157 -24.939278 -119.561683 -12.746646 68.724435 54.449066 200.954984 287.564406 264.910144 47.848412 351.359110 50.723659 18.883333 23.521657 10.961797 19.352142 19.346699 35.412622 6.070182 20.841366 7.490429 -8.733066 16.140775 -10.921287 -13.747951 -6.472824 -39.408142 -39.596785 52.059091 58.014889 14.877679 11.978255 24.171942 -20.279446 2.952947 2.314168 29.612374 -26.023125 -38.999707
-90.402402 96.717680 32.487399 36.479238 31.790815 113.801832 19.566721 46.287335 158.875692 20.041336 -18.711667 -144.233173 -27.922978 24.205055 31.608988 177.704174 -2.534793 231.464510 805.613436 -98.077227 808.163227 -21.957699 227.184427 -78.202551 -130.514492 -25.798581 -120.248376 -16.125952 63.832523 55.778030 201.207210 284.943662 262.837318 46.697187 349.652027 52.462003 17.615377 23.242797 10.292922 19.348140 19.570579 36.280578 5.523925 20.278471 9.426619 -11.033802 17.076877 -10.711827 -12.187211 -5.136052 -41.701310 -37.810558 51.176914 56.572951 13.843393 12.968354 24.219876 -22.175843 3.706092 2.453915 26.378121 -33.946768 -45.780921
-90.284117 97.190302 32.972729 35.959921 31.121238 113.088289 19.561559 43.665345 157.565921 21.541812 -19.963120 -142.930724 -26.822348 23.683479 33.752814 168.124041 3.279099 230.986616 808.991320 -96.350917 813.053370 -23.037866 233.708200 -80.252202 -128.883539 -25.803563 -121.912975 -19.387697 59.636642 56.422564 201.110822 282.149241 260.586088 45.415666 347.974806 54.288519 16.085647 22.397589 10.399613 19.054872 20.183048 37.325365 4.904381 18.777735 10.898374 -13.672393 18.225224 -10.311374 -9.301504 -3.922487 -42.753197 -37.151175 49.781783 54.477548 12.654278 13.141499 23.728825 -18.474632 4.700451 1.906998 33.264927 -22.626113 -26.586887
-90.124320 97.691706 33.283274 35.507821 30.875877 114.186536 20.016776 42.579823 155.616721 22.751348 -20.874554 -142.488551 -25.922369 22.852592 35.777822 160.125288 9.913234 230.023887 812.432587 -94.177831 816.709816 -24.433822 240.222097 -81.627140 -128.305964 -27.171946 -121.703794 -22.155809 56.033325 55.575972 200.219400 278.861215 258.082714 44.125044 345.987276 56.931693 14.544522 21.886704 11.436701 18.593546 20.653517 38.302301 4.508656 17.405637 11.972788 -16.441010 19.220378 -9.753668 -7.011291 -4.293612 -43.553729 -35.550096 49.587477 53.560742 12.533967 14.758758 24.520768 -17.203003 4.603214 2.224417 28.885976 -32.439201 -33.510353
-89.943217 98.166808 33.555135 34.559306 30.701106 114.445803 20.584887 39.897566 154.661260 24.144164 -21.617076 -141.388427 -25.256631 22.166735 37.628424 153.062804 15.863145 229.633911 815.336074 -91.833396 819.519592 -25.791027 246.882870 -83.098288 -127.930755 -28.370010 -121.343925 -24.313817 52.707999 53.894366 198.750363 275.454699 255.212559 42.722813 343.714080 59.500414 12.957121 21.075503 12.566304 17.715165 21.184788 39.079522 3.978512 15.526309 12.524974 -19.339194 20.739881 -9.341014 -3.258598 -4.304980 -44.078674 -35.084325 48.503427 51.859567 11.873655 15.003907 24.736560 -15.143901 4.510034 1.654321 34.891034 -16.556329 -24.036802
-89.734858 98.637703 33.721830 34.191521 30.261645 114.856816 20.545383 38.244046 153.585642 25.520949 -22.162019 -140.712292 -24.550673 21.286192 39.294099 146.520357 21.101497 230.362500 817.306774 -89.967832 821.646895 -27.195926 252.798880 -84.568855 -127.958608 -29.330308 -120.903296 -25.505323 49.746184 52.092138 196.529800 271.890624 252.079497 41.084001 341.204504 61.989854 11.464809 20.561612 13.606301 17.081453 21.950437 39.738560 4.073780 13.754924 12.853304 -22.342917 21.822639 -8.741589 0.594075 -4.769247 -44.875596 -34.068471 48.153305 50.544445 11.529799 15.736039 25.484168 -14.142958 5.131630 1.463495 35.135364 -22.075926 -26.705422
